<svg width="340.527" height="64.795" viewBox="0 0 340.527 64.795" class="w-auto h-5 text-gray-800 dark:text-teal-400" xmlns="http://www.w3.org/2000/svg">
    <g id="svgGroup" stroke-linecap="round" fill-rule="evenodd" font-size="9pt" stroke="#18b69b" stroke-width="0.25mm" fill="#18b69b" style="stroke:#18b69b;stroke-width:0.25mm;fill:#18b69b;--tw-text-opacity: 1; fill: rgb(24 182 155 / var(--tw-text-opacity));">
        <path d="M 327.588 64.795 L 318.896 64.795 L 318.896 40.527 L 290.869 40.527 L 277.881 27.539 L 277.881 12.939 L 290.869 0 L 298.193 0 L 298.193 22.998 L 327.979 22.998 L 340.527 35.986 L 340.527 51.855 L 327.588 64.795 Z M 40.088 64.795 L 12.939 64.795 L 0 51.855 L 0 12.939 L 12.939 0 L 21.582 0 L 21.582 51.855 L 40.088 51.855 L 40.088 64.795 Z M 256.396 48.145 L 232.178 48.145 L 232.178 35.156 L 247.852 35.156 L 247.852 12.939 L 232.178 12.939 L 232.178 0 L 256.396 0 L 269.336 12.939 L 269.336 35.156 L 256.396 48.145 Z M 178.076 64.795 L 157.08 64.795 L 133.643 0 L 155.664 0 L 178.076 64.795 Z M 228.76 64.795 L 207.568 64.795 L 207.568 0 L 228.76 0 L 228.76 64.795 Z M 99.463 64.795 L 84.961 64.795 L 72.021 51.855 L 72.021 25.879 L 84.961 12.939 L 99.463 12.939 L 99.463 25.879 L 93.848 25.879 L 93.848 52.686 L 99.463 52.686 L 99.463 64.795 Z M 203.125 0 L 180.713 62.842 L 170.996 34.326 L 181.445 0 L 203.125 0 Z M 117.334 64.795 L 102.881 64.795 L 102.881 52.686 L 108.252 52.686 L 108.252 25.879 L 102.881 25.879 L 102.881 12.939 L 117.334 12.939 L 130.273 25.879 L 130.273 51.855 L 117.334 64.795 Z M 62.646 64.795 L 43.506 64.795 L 43.506 41.699 L 33.008 41.699 L 33.008 28.857 L 62.646 28.857 L 62.646 64.795 Z M 315.479 64.795 L 288.77 64.795 L 277.881 51.855 L 277.881 45.361 L 299.463 45.361 L 299.463 53.076 L 315.479 53.076 L 315.479 64.795 Z M 62.646 19.434 L 41.064 19.434 L 41.064 12.939 L 25 12.939 L 25 0 L 51.318 0 L 62.646 12.939 L 62.646 19.434 Z M 338.77 18.164 L 318.896 18.164 L 318.896 11.67 L 301.611 11.67 L 301.611 0 L 327.539 0 L 338.77 11.279 L 338.77 18.164 Z" vector-effect="non-scaling-stroke"/>
    </g>
</svg>